<svg width="297" height="297" viewBox="0 0 297 297" fill="none" xmlns="http://www.w3.org/2000/svg">
<path d="M5.81 276.48C2.06 272.73 0 267.75 0 262.45C0 257.14 2.06 252.16 5.81 248.41L75.77 178.46C79.52 174.71 84.5 172.64 89.8 172.64C95.1 172.64 100.09 174.71 103.83 178.46L107.62 182.25L125.64 164.23C130.07 159.8 135.89 157.59 141.71 157.59C147.53 157.59 153.35 159.8 157.78 164.23L235.02 241.47C239.96 246.4 247.98 246.4 252.91 241.47L279.02 215.36C281.41 212.97 282.73 209.79 282.73 206.42C282.73 203.04 281.41 199.86 279.02 197.47L272.37 190.82L262.56 200.63C257.6 205.59 250.99 208.33 243.97 208.33C240.45 208.33 237.05 207.64 233.89 206.34C230.74 205.04 227.85 203.11 225.37 200.63L96.37 71.63C91.4 66.66 88.67 60.06 88.67 53.03C88.67 46 91.4 39.4 96.37 34.43L123.11 7.69C128.24 2.56 134.97 0 141.71 0C148.45 0 155.18 2.56 160.31 7.69L289.31 136.69C299.56 146.94 299.56 163.63 289.31 173.89L279.5 183.69L286.15 190.34C290.44 194.64 292.81 200.34 292.81 206.42C292.81 212.49 290.44 218.2 286.15 222.49L260.04 248.6C251.18 257.46 236.76 257.46 227.89 248.6L150.65 171.36C145.72 166.43 137.7 166.43 132.76 171.36L114.75 189.37L118.54 193.16C122.29 196.91 124.35 201.89 124.35 207.2C124.35 212.5 122.29 217.48 118.54 221.23L48.58 291.19C44.84 294.94 39.85 297 34.55 297C29.25 297 24.27 294.94 20.52 291.19L5.81 276.48ZM12.94 255.54C9.13 259.35 9.13 265.54 12.94 269.35L27.65 284.06C29.55 285.96 32.05 286.91 34.55 286.91C37.05 286.91 39.55 285.96 41.46 284.06L111.41 214.1C113.26 212.26 114.27 209.8 114.27 207.2C114.27 204.59 113.26 202.14 111.41 200.29L96.71 185.58C94.86 183.74 92.41 182.72 89.8 182.72C87.19 182.72 84.74 183.74 82.9 185.58L12.94 255.54ZM98.75 53.03C98.75 57.36 100.43 61.44 103.5 64.5L232.5 193.5C235.56 196.56 239.63 198.25 243.97 198.25C248.3 198.25 252.37 196.56 255.44 193.5L282.18 166.76C288.5 160.43 288.5 150.14 282.18 143.82L153.18 14.82C146.85 8.50001 136.57 8.50001 130.24 14.82L103.5 41.56C100.43 44.62 98.75 48.7 98.75 53.03Z" fill="white"/>
<path d="M30.83 266.83C28.86 264.86 28.86 261.67 30.83 259.7L89.65 200.89C90.63 199.9 91.92 199.41 93.21 199.41C94.5 199.41 95.79 199.9 96.78 200.89C98.75 202.86 98.75 206.05 96.78 208.02L37.96 266.83C35.99 268.8 32.8 268.8 30.83 266.83Z" fill="white"/>
</svg>
