<svg width="512" height="499" viewBox="0 0 512 499" fill="none" xmlns="http://www.w3.org/2000/svg">
<path d="M315.07 0.344781C311.17 1.44478 294.97 17.7448 294.07 21.5448C293.17 24.8448 295.07 29.7448 297.97 31.7448C299.07 32.5448 301.77 33.2448 303.97 33.2448C307.67 33.2448 308.67 32.5448 317.77 23.4448C326.47 14.7448 327.57 13.2448 327.57 10.0448C327.57 3.44478 321.37 -1.35522 315.07 0.344781Z" fill="white"/>
<path d="M396.27 2.24478C392.87 4.94478 391.87 10.0448 393.97 14.0448C395.87 17.7448 398.37 19.2448 402.57 19.2448C406.77 19.2448 409.27 17.7448 411.17 14.0448C414.57 7.54478 410.07 0.244781 402.57 0.244781C400.37 0.244781 397.77 1.04478 396.27 2.24478Z" fill="white"/>
<path d="M466.47 17.1448C462.57 21.1448 462.47 26.0448 466.37 30.3448C471.27 35.8448 480.27 33.8448 482.57 26.8448C485.77 17.1448 473.77 9.94477 466.47 17.1448Z" fill="white"/>
<path d="M189.37 95.9448C117.87 167.345 117.97 167.345 114.17 180.145C112.17 186.945 112.07 198.645 114.07 206.145C116.87 217.145 120.87 222.645 139.77 241.845C157.17 259.545 157.57 260.045 157.57 264.245C157.57 268.045 156.97 269.045 150.87 275.445C147.07 279.345 115.97 307.645 81.5703 338.445C47.1703 369.145 16.7703 396.945 13.9703 400.245C8.77028 406.345 5.17028 412.845 1.97028 421.745C-0.829717 429.745 -0.629717 447.645 2.47028 457.145C7.27028 471.845 18.0703 484.545 31.6703 491.745C40.6703 496.445 48.3703 498.345 59.0703 498.445C72.7703 498.545 84.0703 494.945 95.4703 486.845C97.9703 485.145 125.07 454.945 155.87 419.745C186.67 384.545 214.17 353.345 216.97 350.345C224.37 342.545 229.27 339.245 233.27 339.245C236.37 339.245 238.47 340.945 254.87 357.045C278.97 380.645 286.07 384.545 303.97 384.445C313.77 384.345 321.07 382.445 329.47 377.645C336.07 373.845 468.27 241.545 468.77 238.245C468.97 236.845 468.97 234.645 468.77 233.245C468.47 231.445 439.37 201.645 370.27 132.345C316.27 78.2448 270.27 32.7448 268.17 31.1448C265.57 29.2448 263.07 28.2448 260.67 28.2448C257.27 28.2448 253.77 31.5448 189.37 95.9448ZM256.27 99.0448C230.47 124.945 229.97 125.645 230.57 131.745C231.07 136.945 236.57 140.445 242.57 139.445C244.17 139.145 254.27 129.845 270.87 113.345L296.57 87.8448L310.57 101.745L324.57 115.745L299.67 140.745C285.97 154.445 274.27 166.745 273.67 167.945C269.87 175.545 276.87 183.845 285.37 181.745C287.07 181.345 297.27 171.945 313.57 155.645L339.17 130.245L353.07 144.245L367.07 158.245L341.87 183.545C327.97 197.345 316.17 210.045 315.57 211.645C313.27 217.945 318.07 224.245 325.27 224.245C328.77 224.245 330.27 222.945 355.07 198.245L381.07 172.245L395.37 186.445L409.57 200.745L383.57 226.745C358.87 251.545 357.57 253.045 357.57 256.545C357.57 258.645 358.27 261.445 359.17 262.745C361.07 265.545 366.57 267.645 369.77 266.745C371.07 266.345 383.67 254.445 397.87 240.445L423.57 214.745L434.37 225.545L445.07 236.245L396.07 285.245C369.17 312.245 346.67 334.245 346.07 334.245C345.47 334.245 303.87 293.045 253.57 242.745L162.07 151.245L211.57 101.745L261.07 52.2448L271.57 62.7448L282.07 73.2448L256.27 99.0448ZM326.57 354.445C318.87 361.545 311.97 364.545 303.57 364.545C292.17 364.545 288.27 362.045 267.77 341.845C257.07 331.445 248.27 323.545 245.57 322.245C242.77 320.845 238.57 319.745 234.57 319.545C225.57 318.845 218.77 321.545 210.67 328.945L204.37 334.545L183.27 313.445L162.17 292.345L168.27 285.945C175.17 278.545 177.57 272.945 177.57 264.245C177.57 253.045 176.07 250.645 155.97 230.145C145.57 219.545 136.77 209.645 135.47 207.145C133.97 204.145 133.07 200.345 132.77 195.145C132.37 188.445 132.67 186.745 134.87 181.845C136.27 178.745 139.87 173.745 142.67 170.645L147.97 165.145L239.97 257.245L332.07 349.345L326.57 354.445ZM190.57 349.345C190.57 350.445 88.5703 466.545 84.9703 469.545C80.2703 473.445 71.4703 477.345 65.0703 478.145C38.7703 481.745 15.8703 458.445 20.2703 432.645C21.5703 425.245 25.3703 417.245 29.9703 412.345C31.6703 410.545 58.8703 385.845 90.4703 357.545L147.87 306.045L169.17 327.345C180.97 339.145 190.57 349.045 190.57 349.345Z" fill="white"/>
<path d="M129.97 354.245C126.77 355.545 73.2703 410.845 71.7703 414.345C67.8703 423.745 79.4703 431.345 87.4703 424.645C89.1703 423.245 102.47 409.745 117.07 394.745C142.37 368.645 143.57 367.145 143.57 363.545C143.47 356.245 136.67 351.545 129.97 354.245Z" fill="white"/>
<path d="M47.2703 437.345C45.0703 438.645 42.5703 443.445 42.5703 446.645C42.5703 449.945 46.8703 454.845 50.2703 455.545C54.3703 456.345 59.1703 453.845 61.0703 450.145C64.4703 443.745 59.6703 436.245 52.3703 436.245C50.5703 436.245 48.2703 436.745 47.2703 437.345Z" fill="white"/>
<path d="M353.37 45.0448C337.27 61.1448 336.57 61.9448 336.57 65.8448C336.57 68.0448 337.27 70.7448 338.07 71.8448C340.07 74.7448 344.97 76.6448 348.27 75.7448C351.77 74.9448 381.27 45.9448 383.17 41.5448C386.07 34.8448 381.17 28.2448 373.27 28.2448C370.57 28.2448 367.97 30.3448 353.37 45.0448Z" fill="white"/>
<path d="M409.87 73.5448C379.77 103.545 378.57 104.945 378.57 108.545C378.57 114.145 382.87 118.245 388.67 118.245H392.97L423.77 87.4448L454.57 56.6448V52.3448C454.57 46.5448 450.47 42.2448 444.87 42.2448C441.27 42.2448 439.87 43.4448 409.87 73.5448Z" fill="white"/>
<path d="M498.57 70.9448C490.77 73.9448 489.57 85.1448 496.67 88.7448C506.97 94.1448 516.57 81.2448 508.27 73.3448C505.87 71.1448 501.07 69.9448 498.57 70.9448Z" fill="white"/>
<path d="M470.57 99.0448C466.77 99.6448 421.97 144.745 421.27 148.745C420.07 155.745 426.67 162.245 433.37 160.645C436.77 159.745 479.77 117.345 482.07 112.545C483.37 109.845 483.47 108.545 482.57 105.745C481.97 103.945 480.87 101.945 480.07 101.245C478.17 99.6448 473.47 98.6448 470.57 99.0448Z" fill="white"/>
<path d="M482.87 170.845C481.07 171.745 476.07 176.245 471.57 180.845C464.27 188.545 463.57 189.545 463.57 193.345C463.57 201.145 471.27 205.545 478.37 201.845C482.17 199.845 495.27 186.045 496.57 182.745C499.77 174.445 490.87 166.745 482.87 170.845Z" fill="white"/>
</svg>
