<svg width="508" height="513" viewBox="0 0 508 513" fill="none" xmlns="http://www.w3.org/2000/svg">
<path d="M385.4 8.90001C353.1 44.9 321.5 88.6 304.9 119.8C302 125.3 299.5 130 299.4 130.2C299.2 130.4 295.4 128.9 290.8 127C275.2 120.3 268.8 119.3 239.5 119.3H213.4L212.2 114.7C210.7 109.2 206.4 104.8 200.9 103.2L197 102V93.9C197 89.4 196.5 84 195.9 81.8C194.5 76.7 189.4 71.8 184.2 70.4L180 69.2V61.3V53.4L199.4 53.1C221 52.8 221.8 52.5 226.8 45.3C228.8 42.3 229 40.8 229 28.8C229 16.7 228.8 15.3 226.7 12.2C225.5 10.4 222.9 7.80001 221 6.60001L217.6 4.30001L154.9 4.50001C93.3 4.80001 92.1 4.80001 89.4 6.90001C83 11.7 82.5 13.1 82.5 28.7C82.5 42.6 82.6 43 85.2 46.5C89.9 52.7 92.5 53.3 112.9 53.3H131V61.3V69.2L127.5 70.2C118 72.8 115 78 115 92.2V102.2L111.3 102.9C106.1 103.9 100.2 109.5 98.9 114.9L97.8 119.3H48.9H0V160.3V201.3H49H97.9L98.9 205C99.5 207.1 101.2 210.1 102.6 211.7C107.9 217.3 108.1 217.3 155.7 217.3C196.7 217.3 199.8 217.1 203.7 215.3C208.1 213.3 211.6 208.9 212.7 204L213.3 201.3H235.6H257.9L259.9 203.9C261.4 205.8 262 208 262 211.8C262 217 262 217.1 258.5 217.7C253.8 218.6 248.3 223.6 246.9 228.2C246.3 230.3 246 237 246.2 244C246.5 257.2 247.3 259.2 253.4 263.7C256.1 265.7 257.5 265.8 302.1 266.1C352.1 266.4 351 266.5 356.4 260.6C357.7 259.2 359.3 256.1 359.9 253.7C361.3 248.1 361.3 235.4 359.9 229.8C358.5 224.4 352.7 218.7 347.6 217.7L344 217.1V208.4C344 185.9 335.2 164.2 319 146.9L312.7 140.2L314.4 136.5C324.7 114.9 350.7 76.5 376.4 45C393.2 24.4 392.7 25 393.8 25.7C395.5 26.8 413.2 48.1 424.3 62.5C458.8 107.4 482.7 151.2 489.6 182.3C492 193.3 491.8 211.5 489.1 222.6C484.4 242.3 474.9 258.6 460.1 272.5C447.6 284.3 434.2 291.6 416.2 296.5C405.4 299.4 382.1 299.5 370.8 296.6L363.1 294.6L360.6 302.1C359.2 306.3 358.2 309.9 358.5 310.1C358.7 310.4 362.4 311.4 366.7 312.5C378.9 315.6 401.7 316 414.6 313.5C475.5 301.4 516.1 244.3 506.5 184.3C501.5 153.7 480.8 112 448 66.8C432.6 45.7 421 31.3 396.9 4.00001L393.4 6.57635e-06L385.4 8.90001ZM131.5 28.8V37.3L115 37.1L98.5 36.8L98.2 28.5L97.9 20.3H114.7H131.5V28.8ZM161.1 23.2C164.5 26.6 164.8 30 162 33.6C156.6 40.4 146.6 35.6 147.9 26.8C148.3 24.2 149.9 22.3 152.5 21.3C156.1 19.8 158.1 20.2 161.1 23.2ZM213 28.8V37.3H196.3H179.5V28.8V20.3H196.3H213V28.8ZM164 61.3V69.3H155.5H147V61.3V53.3H155.5H164V61.3ZM180 94.3V102.3H155.5H131V94.3V86.3H155.5H180V94.3ZM196.8 160L196.5 200.8L155.8 201.1L115 201.3V160.3V119.3H156H197L196.8 160ZM98 159.8V184.3H57H16V159.8V135.3H57H98V159.8ZM274.5 138.2C306.3 148.6 325.6 173.6 327.7 207L328.3 217.3H303.8H279.3L278.7 210.4C277.8 198.9 273.4 191.8 264.5 187C260.8 184.9 258.9 184.8 236.8 184.5L213 184.2V159.7V135.1L240.3 135.5C265.3 135.9 268.1 136.1 274.5 138.2ZM344 241.8V250.3H303H262V241.8V233.3H303H344V241.8Z" fill="white"/>
<path d="M33 159.8V168.3H57.5H82V159.8V151.3H57.5H33V159.8Z" fill="white"/>
<path d="M463 166.7C461.1 167.5 457.8 168.7 455.8 169.6L452.2 171.1L454.5 178.4C455.7 182.4 457.2 185.8 457.6 186C459.2 186.5 472.5 182.6 472.4 181.7C472.2 179.5 467.6 165.3 467.1 165.4C466.8 165.4 464.9 166 463 166.7Z" fill="white"/>
<path d="M458.6 207.5C456.1 229.6 442.2 249.5 422.6 259.3C414.3 263.4 403.7 266.3 396.8 266.3H393V274.3V282.3H398.8C405.7 282.3 418.7 279.3 426.2 276C452.7 264.3 472.5 236.8 474.7 209L475.3 201.3H467.3H459.3L458.6 207.5Z" fill="white"/>
<path d="M262 299.3V315.3H270.5H279V299.3V283.3H270.5H262V299.3Z" fill="white"/>
<path d="M295 315.8V348.3H290.2C275.8 348.3 264 353.4 249.9 365.6C238 376 235 377.8 226.9 379.9C212.6 383.6 201.5 379.8 185.5 365.9C168.6 351.1 155 346.4 136.8 349.1C125.3 350.7 116.9 355.1 104 366.2C92.5 376.2 87.6 378.9 78.7 380.6C71.7 381.9 62.3 380.6 55.8 377.4C53.4 376.3 46.8 371.3 41 366.3C35.2 361.4 27.9 355.9 24.8 354.3C19.2 351.3 8.3 348.4 2.8 348.3H0V356.7V365L5.8 365.5C13.7 366.3 19.6 369.5 31.5 379.7C47.2 393.2 56.8 397.3 72.5 397.3C88.2 397.3 97.8 393.2 113.5 379.7C128.1 367.2 132.7 365.2 146.3 365.2C156.9 365.2 163.5 368.3 176 379.2C188 389.6 195.7 394 205.7 396L213.6 397.7L213.5 405.2C213.5 411.1 214 413.7 215.7 416.8C221.8 428.3 235.3 433.2 246.8 428.3C262.4 421.6 266.9 402.4 255.8 389.8L252 385.5L260.3 378.3C270.3 369.6 276.2 366.4 284.3 365.5C295.8 364.2 295 363 295 381.4V397.3H303H310.9L311.2 384.2L311.5 371L319.7 377.9L328 384.8V415.5V446.3H336H344V420.4V394.5L349.3 395.9C352.1 396.6 356.7 397.3 359.4 397.3C363.6 397.3 364.1 397.5 363.5 399C361.4 404.2 360.8 408.6 361.2 416.4C361.5 423.6 362.1 426.2 364.7 431.4C380 462.4 423.1 462.3 438.3 431.4C441.3 425.2 441.5 424.2 441.5 413.8C441.5 404 441.2 402.2 438.8 397.1C434.3 387.3 424.3 378.4 414.6 375.3L410.6 374L413.6 371.7C418.7 367.6 426.5 365.2 435.2 365.2C448.5 365.2 452.7 367.2 470 382.2C481.3 392 493.5 397.3 504.5 397.3H508V389.4V381.5L502.7 380.9C494.8 379.9 488.4 376.4 478.4 367.8C460.7 352.4 452.7 348.9 435.5 348.9C418.2 348.8 410.2 352.3 392.6 367.7C383.7 375.4 378.2 378.7 371.1 380.3C364.4 381.9 354.4 381 348.5 378.4L344 376.4V329.9V283.3H336H328V322.8C328 344.5 327.8 362.3 327.5 362.3C327.2 362.3 324.9 360.8 322.3 358.9C319.6 357.1 316 354.8 314.3 353.9L311 352.2V317.8V283.3H303H295V315.8ZM412.6 392.1C423.3 397.6 428.3 409.8 424.8 421.7C423.2 427.2 414.7 435.7 409.4 437.2C399.6 439.9 391.5 437.9 384.5 430.8C371 417.4 376.5 396.3 395 390.2C399 388.9 408.3 389.9 412.6 392.1ZM243.8 400.9C246.5 404 246.6 407.2 244 410.6C238.6 417.4 228.6 412.6 229.9 403.8C230.9 397.3 239 395.6 243.8 400.9Z" fill="white"/>
<path d="M294.7 464.7C285.1 468.2 279 477.1 279 487.7C279.1 495.5 281.4 500.8 287.3 506C301.4 518.3 323 511.2 327.1 492.9C331.2 474.4 312.7 458.3 294.7 464.7ZM309.3 482.4C311.2 484.7 311.5 489.4 310 492.3C308.7 494.8 303.5 496.4 300.6 495.3C297.6 494.2 295 490.6 295 487.5C295 486.2 296.4 483.8 298 482.1C300.6 479.6 301.6 479.2 304.3 479.7C306.1 480 308.3 481.3 309.3 482.4Z" fill="white"/>
</svg>
