<svg width="256" height="258" viewBox="0 0 256 258" fill="none" xmlns="http://www.w3.org/2000/svg">
<path d="M52.4013 1.13862C51.0264 1.79362 49.4224 2.8517 48.8496 3.55708C47.7612 4.91747 30.7476 45.4772 29.4873 49.6591C28.7999 52.0272 28.9145 52.8333 31.1486 62.0538C32.4089 67.4449 33.4973 72.2315 33.4973 72.6345C33.4973 73.0376 31.0913 78.983 28.1125 85.9361L22.7277 98.5323L18.5459 98.7842C13.4476 99.0865 11.2708 100.044 9.55224 102.714C7.94826 105.284 7.94826 107.45 9.72409 113.597C11.5572 119.996 11.5572 124.077 9.72409 130.073C4.22475 147.909 2.27707 156.273 0.730381 168.819C-0.24346 176.981 -0.24346 202.274 0.730381 210.638C2.56349 226.409 6.40157 244.598 8.63568 248.528C10.5261 251.853 14.0205 254.826 17.9731 256.438C20.6655 257.547 21.983 257.748 26.0503 257.748C30.1748 257.748 31.3777 257.547 34.1274 256.337C37.9655 254.725 42.2618 250.845 43.9231 247.57C45.8708 243.691 45.8708 240.466 43.9231 232.304C38.7675 210.739 37.6218 188.519 40.6579 166.904C42.491 153.855 44.496 149.27 51.4847 142.115C54.9791 138.538 57.1559 135.212 58.8172 130.779C59.8483 127.907 60.1347 126.143 60.1347 121.457C60.1347 116.217 59.9628 115.361 58.588 112.791C57.786 111.229 56.0102 108.912 54.6926 107.652L52.2294 105.334L53.547 102.16C54.2917 100.447 55.3228 98.0788 55.8956 96.8696L56.9268 94.7534H73.1956H89.4645L91.8132 100.094L94.1619 105.435L91.6413 107.652C87.8033 111.078 86.0847 114.555 85.7983 119.845C85.2827 128.259 87.9178 134.91 94.9066 142.518C99.7185 147.758 101.953 151.487 103.385 156.676C106.077 166.149 107.567 185.396 106.765 200.259C106.192 211.193 105.046 219.556 102.411 230.792C100.979 237.191 100.463 240.416 100.692 242.481C101.265 248.427 105.619 253.818 111.92 256.438C114.613 257.547 115.93 257.748 119.997 257.748C125.898 257.748 128.876 256.69 133.173 253.163C137.068 249.938 138.5 246.966 140.563 237.846C144.401 220.413 145.947 206.507 145.947 189.225C145.89 167.912 143.541 153.2 136.839 132.895C134.318 125.186 134.204 119.895 136.323 113.144C138.099 107.551 138.099 105.637 136.438 103.067C134.605 100.195 131.512 98.7842 126.871 98.7842H123.148L117.649 85.8857L112.149 73.0376L114.383 63.3638C115.586 58.023 116.56 52.9845 116.56 52.0776C116.56 50.163 98.5728 6.1267 96.8542 3.96016C94.3337 0.735539 90.3238 -0.574464 85.34 0.231691C82.5903 0.685154 78.9241 3.65785 78.1794 5.97555C77.8357 7.08401 77.6066 15.0952 77.6066 25.4744V43.1595H72.7374H67.8681V24.9706C67.8681 6.93286 67.8681 6.73132 66.5506 4.56478C64.0301 0.332461 57.6715 -1.17908 52.4013 1.13862ZM58.1297 28.951C58.1297 45.5276 57.9579 49.4072 57.3277 49.8607C56.9268 50.163 55.8383 51.8257 54.9791 53.4884C51.0837 61.1468 54.4635 70.6192 62.6552 74.9522C68.6128 78.0761 75.3152 78.328 81.5592 75.5569C91.9278 71.0222 95.3648 59.5849 89.0635 50.8683L87.345 48.5506V28.5983C87.345 12.0721 87.4595 8.59556 88.147 8.59556C88.6052 8.59556 92.0996 16.254 97.9427 30.1098L106.936 51.6745L104.874 61.2476C103.728 66.4876 102.812 71.8284 102.812 73.088C102.869 74.6499 104.473 79.1342 107.967 87.1957C110.717 93.6954 112.951 99.0865 112.837 99.1873C112.321 99.6408 103.098 101.253 102.812 100.951C102.583 100.699 101.322 98.23 99.9476 95.3581C95.4221 85.785 96.6824 86.188 72.6801 86.188H53.9479L51.4847 87.4477C48.9069 88.808 47.8758 90.3196 44.6678 97.6254C43.7513 99.6408 42.892 101.303 42.6628 101.303C41.9754 101.303 33.3254 99.2881 33.039 99.0865C32.9244 98.9354 35.1585 93.3427 38.0228 86.6415C41.2307 79.1342 43.2357 73.743 43.1784 72.6345C43.1784 71.6269 42.2046 66.6388 40.9443 61.4995L38.7675 52.1783L47.7039 30.3618C53.2032 16.9594 56.9268 8.59556 57.385 8.59556C57.9579 8.59556 58.1297 12.6767 58.1297 28.951ZM78.0076 53.0349C82.4758 55.403 83.8506 60.9957 80.9291 64.8753C77.492 69.4099 69.9304 69.9642 65.8059 65.9334C63.8582 64.0691 63.2854 62.7591 63.2854 60.1391C63.2854 53.4884 71.4198 49.5583 78.0076 53.0349ZM35.7314 108.609C37.7364 109.012 40.7152 109.97 42.3191 110.675C48.6205 113.446 50.4536 116.469 49.9953 123.221C49.5943 128.562 47.2456 133.197 42.4337 138.084C38.7675 141.813 35.2731 147.405 33.6118 152.192C32.237 156.122 30.2893 168.063 29.4873 177.334C27.9979 195.019 29.6592 215.425 34.1274 234.017C36.0178 242.078 35.846 243.943 32.6953 246.714C28.2844 250.593 20.6655 249.938 17.5148 245.353C15.8536 242.985 12.4165 226.661 10.4688 211.898C9.43767 204.34 9.49495 174.361 10.4688 167.307C12.1873 155.568 14.1923 146.851 17.744 136.27C20.3791 128.461 21.0665 123.322 20.3218 117.578C20.0354 115.109 19.4052 111.985 18.8897 110.625C18.4314 109.214 18.0304 107.904 18.0304 107.652C18.0304 106.947 31.5496 107.702 35.7314 108.609ZM126.7 110.473C125.84 112.842 125.497 115.411 125.325 120.45C125.096 126.597 125.21 127.705 126.528 132.038C133.116 153.25 134.949 162.521 136.037 178.997C137.011 193.759 135.636 212.503 132.314 229.533C129.621 243.237 128.647 245.706 125.096 248.024C121.544 250.392 115.014 249.384 112.149 246.109C109.915 243.54 109.915 240.819 111.92 232.052C117.133 209.379 117.992 184.388 114.269 161.967C112.378 150.58 110.03 145.642 102.755 137.681C97.0834 131.534 95.0211 126.496 95.4794 120.147C95.8231 115.562 97.7708 113.245 103.385 110.725C108.483 108.508 114.383 107.45 122.346 107.4L127.903 107.35L126.7 110.473Z" fill="white"/>
<path d="M149.155 39.0783C147.723 39.9853 146.749 42.2022 147.207 43.7641C147.379 44.3687 149.441 46.2834 151.79 48.0468C162.674 56.058 169.434 68.2007 171.553 83.4673L171.897 86.0369L169.663 86.3896C166.97 86.7423 163.992 88.8081 162.961 91.0754C162.273 92.4358 162.159 106.191 162.159 172.195V251.702L163.476 253.717C165.596 257.043 168.46 258 176.594 258C181.12 258 184.041 257.748 185.244 257.295C187.478 256.488 189.942 254.221 190.744 252.307C191.202 251.299 191.374 226.51 191.374 171.943C191.374 96.0131 191.317 92.8892 190.285 90.9242C189.025 88.5058 186.505 86.7423 183.64 86.3392C181.865 86.0873 181.635 85.8858 181.635 84.475C181.635 82.1573 183.182 74.2469 184.27 71.0727C186.505 64.3211 191.488 58.2749 196.243 56.4107C201.112 54.5465 202.372 51.473 199.451 48.853C197.274 46.9384 194.868 46.9384 191.03 48.9034C185.817 51.473 180.49 56.9649 177.625 62.6584C176.709 64.4219 176.48 64.6234 176.136 63.7669C174.876 60.5422 170.923 53.9922 168.403 51.0699C164.45 46.4345 162.617 44.7718 157.69 41.2953C153.279 38.1714 151.446 37.6676 149.155 39.0783ZM181.635 172.094V249.435H176.766H171.897V172.094V94.7535H176.766H181.635V172.094Z" fill="white"/>
<path d="M205.246 38.8264C203.528 39.4311 202.153 41.2953 202.153 43.0588C202.153 44.1168 202.726 44.923 204.273 46.0818C212.923 52.5311 217.677 57.9223 221.401 65.5303C223.807 70.4177 225.984 77.5723 226.556 82.5604C226.9 86.1377 226.9 86.1881 225.583 86.1881C223.177 86.1881 219.797 88.3042 218.365 90.6723L217.047 92.8893V171.54C217.047 221.622 217.276 250.845 217.62 251.954C218.25 254.02 221.114 256.69 223.52 257.446C224.437 257.748 228.16 258 231.827 258C239.56 258 242.31 257.194 244.601 254.423L245.976 252.71V171.993V91.2769L244.773 89.8662C243.169 88.0019 240.133 86.1881 238.472 86.1881C237.727 86.1881 237.04 86.0369 236.868 85.785C236.753 85.5835 236.868 83.4673 237.154 81.1496C238.701 68.5534 244.086 59.3834 251.704 56.2092C253.423 55.5038 255.084 54.4961 255.428 53.9419C256.917 51.473 255.371 48.2988 252.277 47.5934C247.408 46.5353 238.529 53.0853 233.373 61.6003C231.769 64.2203 231.368 64.573 231.025 63.7669C230.853 63.2126 229.65 60.9453 228.447 58.7284C224.952 52.1784 219.339 45.9307 212.751 41.3457C208.97 38.7257 207.194 38.1211 205.246 38.8264ZM236.524 172.094V249.435H231.655H226.786V172.094V94.7535H231.655H236.524V172.094Z" fill="white"/>
</svg>
