<svg width="478" height="512" viewBox="0 0 478 512" fill="none" xmlns="http://www.w3.org/2000/svg">
<path d="M94 166.5V333H76.8H59.5L38.2 357.3L17 381.5V387.2V392.9L13.3 393.2L9.5 393.5L4.8 449.5C2.2 480.3 0.1 507 0.1 508.7L0 512H120C186 512 240 511.7 240 511.4C240 509.4 230.9 400.8 230.4 397.3C229.9 393.3 229.7 393.1 226.2 392.8L222.5 392.5L222 386.2L221.5 379.8L201 356.5L180.5 333.1L163.3 333H146V166.5V-7.62939e-06H120H94V166.5ZM128 21.5V26.1L119.8 25.8L111.5 25.5L111.2 21.2L110.9 17H119.4H128V21.5ZM128 188V333H119.5H111V188V43H119.5H128V188ZM188.8 368.5C202.1 383.7 205 387.4 205 390V393H120H35V389.9C35 387.4 37.8 383.7 51.2 368.4L67.4 350H120H172.5L188.8 368.5ZM217.8 449.7C219.6 471.6 221 490.7 221 492.2V495H213H205V465V435H196.5H188V465V495H184H180V465V435H171.5H163V465V495H158.5H154V465V435H145.5H137V465V495H132.5H128V465V435H119.5H111V465V495H107H103V465V435H94.5H86V465V495H81.5H77V465V435H68.5H60V465V495H56H52V465V435H43.5H35V465V495H26.5H18L18.5 490.7C19.3 484.8 25 415 25 412.2V410H119.8H214.6L217.8 449.7Z" fill="white"/>
<path d="M339.5 138.7C307.2 145.6 280.8 169.1 269.9 200.8C265.8 212.8 265 221.5 265 256.6V289.9L260.8 290.2L256.5 290.5L256.2 298.7L255.9 307H265H274V309.7C274 311.3 275.8 355 278 407C280.2 459 282 503.9 282 506.7V512H366.9H451.9L452.4 507.7C452.7 505.4 454.5 463 456.5 413.5C458.4 364 460.3 319.8 460.6 315.2L461.2 307H469.6H478V298.5V290H474.1H470.2L469.7 253.7C469.2 214.3 468.7 209.8 463.1 196C451 166.3 425.5 144.9 394.8 138.6C384.4 136.5 349.6 136.5 339.5 138.7ZM399.7 157.4C424 165.7 442.1 184.6 449.6 209.5C452.3 218.4 452.3 218.8 452.8 254.2L453.2 290H367.5H281.9L282.2 253.7C282.7 213.4 282.8 212.3 289.9 197.5C300.3 175.7 318.8 160.9 342.5 155.5C346.9 154.4 354.3 154.1 370 154.3C390.6 154.6 391.9 154.7 399.7 157.4ZM443.5 316.7C443.2 322.1 441.6 359.1 440 399C438.4 438.9 436.8 476.8 436.4 483.2L435.8 495H367.5H299.2L298.6 488.7C298.3 485.3 296.7 448.3 295 406.5C293.3 364.7 291.7 325.2 291.3 318.7L290.7 307H367.4H444.1L443.5 316.7Z" fill="white"/>
<path d="M384.7 324.6C384.3 325 384 328.9 384 333.2V341H393H402.1L401.8 332.7L401.5 324.5L393.5 324.2C389 324.1 385.1 324.2 384.7 324.6Z" fill="white"/>
<path d="M410 332.5V341H418.5H427V332.5V324H418.5H410V332.5Z" fill="white"/>
<path d="M410 358.5V367H418.5H427V358.5V350H418.5H410V358.5Z" fill="white"/>
</svg>
