<svg width="469" height="472" viewBox="0 0 469 472" fill="none" xmlns="http://www.w3.org/2000/svg">
<path d="M427.29 12.2C389.69 38.5 393.89 34.7 385.79 49.9L378.69 63.2L294.89 147L210.99 230.9L206.49 226.8C200.99 222 198.69 221 192.69 221C180.79 221 171.89 234.9 176.99 245.6C181.79 255.7 170.49 274.9 155.99 281.6C152.99 283 147.09 284.5 142.29 285C130.49 286.5 124.49 288.4 117.79 292.9C114.29 295.2 90.19 318.6 59.79 349.2C12.39 396.8 7.39002 402.1 4.59002 408C-3.80998 425.9 -0.509981 445.9 13.09 459.5C26.29 472.7 44.69 475.5 62.29 466.9C68.29 464 73.89 458.7 123.49 409.1C187.29 345.2 182.89 351 186.29 325.3C188.09 311.4 196.09 299.7 207.79 294C214.99 290.5 219.29 290.1 225.49 292.6C229.49 294.1 230.69 294.2 234.29 293.2C241.99 290.8 248.39 283.1 248.39 276.1C248.39 271.7 246.19 266.9 242.09 262.3L238.49 258.4L323.19 173.7L407.89 89.1L420.19 82.7L432.39 76.3L449.89 51.6C459.49 38 467.79 26.1 468.39 25C468.99 23.8 469.09 22.3 468.49 20.8C467.09 17.3 448.99 5.17635e-06 446.59 5.17635e-06C445.49 5.17635e-06 436.79 5.50001 427.29 12.2ZM450.59 18.7L455.19 23.5L439.99 45L424.79 66.5L412.39 73.2L399.99 79.9L314.99 164.9L229.89 250L224.59 244.8L219.39 239.5L303.99 154.9L388.59 70.3L395.29 57.5L402.09 44.7L423.49 29.4C435.29 21 445.09 14.1 445.39 14.1C445.69 14 448.09 16.1 450.59 18.7ZM216.19 253.3C229.69 266.9 236.39 274.3 236.39 275.7C236.39 277.8 232.19 282 230.09 282C228.09 282 187.39 240.6 187.39 238.6C187.39 235.8 190.29 233 193.29 233C195.39 233 200.09 237.2 216.19 253.3ZM199.79 269.9L209.59 279.7L203.19 282.7C190.99 288.5 180.29 300.9 176.39 314C175.29 317.6 173.99 324.5 173.39 329.4C172.49 337.9 169.79 345.6 166.99 347.9C165.99 348.7 164.69 348.6 161.89 347.5C159.89 346.6 155.59 345.9 152.39 345.9C141.29 345.8 140.29 346.6 101.69 385.3C82.39 404.7 65.79 422.1 64.89 424C62.09 429.4 61.79 438.5 64.19 444.7L66.19 449.9L62.79 452.5C56.29 457.5 50.49 459.5 42.39 459.5C32.99 459.5 27.29 457.1 20.99 450.4C11.99 441 9.29002 426.1 14.69 414.9C16.09 412 18.09 408.4 19.19 407.1L21.09 404.7L25.49 406.5C32.09 409.2 40.79 408.9 46.89 405.7C50.59 403.8 61.39 393.6 86.99 367.8C118.19 336.5 122.29 331.9 123.79 327.6C125.79 321.4 125.79 315.5 123.89 309.9C122.99 307.5 122.59 305 122.89 304.2C123.89 301.6 133.79 298 142.99 297.1C157.79 295.6 168.09 290.5 177.49 280.2C182.29 275 188.39 264.3 188.39 261.2C188.39 258.9 189.99 260.1 199.79 269.9ZM113.39 318C113.39 319.6 112.89 322.1 112.39 323.7C111.79 325.2 95.89 341.9 77.09 360.8C41.39 396.5 39.99 397.7 33.19 396.3C30.29 395.7 31.29 394.6 70.99 354.9C93.39 332.5 112.09 314.3 112.59 314.6C112.99 314.9 113.39 316.4 113.39 318ZM116.99 398.9C94.39 421.5 75.69 439.7 75.19 439.4C74.09 438.7 74.19 433.7 75.39 430.3C76.59 427.3 139.89 363 144.89 359.9C146.79 358.7 149.69 358 152.89 358H157.89L116.99 398.9Z" fill="white"/>
</svg>
